<?xml version="1.0" encoding="UTF-8"?>
<svg version="1.1" viewBox="0 0 2048 497" width="498" height="121" xmlns="http://www.w3.org/2000/svg">
<path transform="translate(1751,85)" d="m0 0 7 2 5 4 2 5v65h15l19 2 25 5 20 6 25 11 17 9 11 8 10 8 15 15 13 17 10 16 8 15 10 26 6 22 4 20 3 29v24l-1 16-2 9-4 4h-10l-5-3-3-6-7-29-8-23-8-17-13-21-11-14-14-15-12-10-13-9-14-8-15-7-18-6-22-5-28-4-3-1v63l-3 7-7 4h-8l-10-9-96-96-5-7-1-6 4-8 106-106zm-10 39-10 9-69 69 62 62 8 7 9 9h1l1-48 4-6 5-3h15l29 3 25 5 21 7 24 11 16 10 12 9 12 11 13 13 11 14 10 15 5 7h1l-1-10-8-24-10-21-10-16-9-12-9-10-7-7-15-11-18-11-15-7-25-8-19-4-26-3-24-2-5-3-2-5-1-50z" fill="#4C5C6C"/>
<path transform="translate(502,161)" d="m0 0h87l2 13v4l17 1 4 1 2 15 2 1 17 2 2 1v107l-1 1-18 2-2 4-2 11-4 2-16 1-2 16-1 1-45 1h-43v23l-1 49-1 1-35 1-7-1-1-1-1-20v-174l1-24 1-1 15-1 4-1 3-16 1-1 19-1 2-15zm7 36-8 1-1 22v76l1 12h88l1-3v-107l-6-1z" fill="#010102"/>
<path transform="translate(832,161)" d="m0 0h42l2 2v144h88l1-59v-28l1-58 1-1h42l1 1 1 53v138l-1 64-2 1h-41l-1-2-2-71h-82l-5-1-3-16-4-1-14-1-2-1-2-16-15-1-5-1-1-3v-141z" fill="#010202"/>
<path transform="translate(293,161)" d="m0 0h131l1 1v34l-1 1-133 1v36l133 1 1 1v34l-2 1-131 1v35l129 1 4 1v34l-1 1-51 1h-78l-3-1-3-16-4-1-13-1-3-2-2-11v-4l-16-1-4-1-1-2v-105l1-2 14-1 5-1 2-9 2-7 1-1 18-1 2-14z" fill="#010101"/>
<path transform="translate(1373,87)" d="m0 0h42l1 1 1 22v51h88l1 1v34l-2 1-86 1-1 110h82l7 2v33l-1 1-23 1h-62l-3-3-2-14-19-2-2-5-2-11-16-2-4-2-1-16v-187l1-15z" fill="#010202"/>
<path transform="translate(667,87)" d="m0 0h41l2 1 1 219 75 1 13 1 1 3v31l-1 1-41 1h-43l-4-2-2-16-18-1-3-3-2-14-16-1-4-2-1-3v-212z" fill="#010101"/>
<path transform="translate(1208,161)" d="m0 0h42l1 1 1 145 72 1 16 1 1 3v27l-1 5-37 1h-48l-3-1-2-14v-3l-19-1-2-2-2-14-3-1-13-1-4-1-1-3v-141z" fill="#010202"/>
<path transform="translate(127,161)" d="m0 0h86l2 2v31l-2 3-87 1-1 145-1 1-22 1h-14l-7-1-1-6v-131l1-8 1-1 18-2 2-5 1-9 2-3 19-1 1-11z" fill="#010102"/>
<path transform="translate(1697,82)" d="m0 0h6l6 4 4 7-1 6-11 12-83 83-6 7 2 4 41 41 7 8 45 45 6 9-1 5-7 8-5 2-9-5-26-26-7-8-55-55-7-8-11-11-3-7 2-7 12-14 57-57 6-7h2l2-4 28-28z" fill="#4C5C6C"/>
<path transform="translate(1042,235)" d="m0 0h132l1 1v34l-2 1h-131l-1-1v-34z"/>
<path transform="translate(1208,87)" d="m0 0h42l1 1v34l-1 1h-43l-1-2v-32z" fill="#020303"/>
</svg>
